<svg width="60" height="20" viewBox="0 0 600 128" fill="none" xmlns="http://www.w3.org/2000/svg">
<path d="M53.5404 127.972C44.0492 128.178 34.6259 126.326 25.9188 122.543C18.4151 119.195 12.0405 113.747 7.56251 106.858C3.10241 99.713 0.502477 91.5652 0 83.1576V81.8865H25.4233V82.9854C25.6047 87.6465 27.1727 92.1476 29.9265 95.9127C32.6423 99.4795 36.2453 102.272 40.3763 104.014C44.869 105.902 49.7013 106.848 54.5745 106.793C58.6138 106.864 62.64 106.312 66.5108 105.156C69.5476 104.282 72.2699 102.554 74.3537 100.179C76.2545 97.7748 77.2391 94.7738 77.1326 91.7111C77.2189 89.8711 76.8745 88.0364 76.1264 86.3532C75.3782 84.6699 74.2471 83.1846 72.8235 82.0156C68.6336 79.0346 63.7845 77.1126 58.69 76.4139L38.5232 72.514C29.3596 71.0309 20.8093 66.965 13.8752 60.7933C10.744 57.8593 8.27474 54.2908 6.63251 50.3264C4.99029 46.3621 4.21306 42.0929 4.35224 37.8041C4.27752 30.9206 6.43966 24.1989 10.514 18.6501C14.8993 12.8254 20.7814 8.2984 27.5347 5.55053C43.57 -0.801097 61.4455 -0.677427 77.3914 5.89533C84.1613 8.91646 89.9361 13.7948 94.0461 19.9646C98.0086 26.2775 100.238 33.523 100.51 40.9715V42.2211H75.1075V41.1007C74.9252 37.6974 73.912 34.3908 72.156 31.4699C70.1981 28.4521 67.3958 26.0767 64.098 24.6399C59.7613 22.7776 55.0691 21.8878 50.3517 22.0329C46.5404 21.9829 42.7472 22.5652 39.1265 23.7564C36.2071 24.6731 33.5777 26.337 31.4993 28.5829C29.7151 30.6165 28.7614 33.2467 28.8277 35.9513C28.6961 37.6436 29.0275 39.3399 29.7866 40.8582C30.5457 42.3764 31.7039 43.6594 33.1368 44.5695C37.6989 47.0824 42.6641 48.7813 47.8094 49.5898L67.8038 53.4678C73.9048 54.5761 79.7797 56.6875 85.1906 59.7161C90.1497 62.5216 94.3162 66.5396 97.2995 71.3938C100.397 76.5994 101.958 82.575 101.803 88.6303C101.92 95.8588 99.9443 102.967 96.1144 109.099C92.0493 115.263 86.2877 120.119 79.5244 123.082C71.3186 126.571 62.4534 128.24 53.5404 127.972Z" fill="white"/>
<path d="M148.449 124.934V25.1138H108.805V3.95609H212.503V25.1138H173.01V124.934H148.449Z" fill="white"/>
<path d="M294.678 124.934V94.7706C294.678 88.1346 293.342 83.4161 290.714 80.7876C288.085 78.159 283.238 76.8017 276.365 76.8017H252.665V124.934H228.102V3.95609H281.815C293.536 3.95609 303.145 6.73541 310.32 12.2511C317.495 17.7667 321.287 25.911 321.287 36.3175C321.503 43.4172 319.042 50.3386 314.392 55.7085C310.82 59.7029 306.405 62.8529 301.465 64.9301C306.407 66.327 310.747 69.3191 313.811 73.4405C317.745 79.1181 319.706 85.931 319.391 92.8315V125.02L294.678 124.934ZM277.571 55.4716C281.115 55.5664 284.643 54.966 287.956 53.7047C290.447 52.7234 292.566 50.9821 294.01 48.7278C295.458 46.187 296.16 43.2896 296.036 40.3681C296.2 38.2484 295.873 36.1194 295.081 34.1464C294.289 32.1735 293.052 30.4096 291.468 28.992C288.365 26.4281 283.69 25.1137 277.571 25.1137H252.643V55.4716H277.571Z" fill="white"/>
<path d="M370.303 3.95609H345.741V124.934H370.303V3.95609Z" fill="white"/>
<path d="M471.093 124.762L431.191 72.1047L420.827 82.8774V124.762H396.61V3.76225H420.827V51.4857L421.797 50.279L423.952 47.7365C424.756 46.8172 425.618 45.891 426.537 44.9573L465.319 3.76225H496.948L447.737 54.8898L503.411 124.762H471.093Z" fill="white"/>
<path d="M512.568 124.74V3.76218H597.458V24.9414H537.13V51.5502H594.915V72.8803H537.13V103.583H600V124.74H512.568Z" fill="white"/>
</svg>
