<svg width="155" height="122" viewBox="0 0 155 122" fill="none" xmlns="http://www.w3.org/2000/svg">
<path fill-rule="evenodd" clip-rule="evenodd" d="M7.06565 45.2477C1.90963 43.2685 -0.665684 37.4843 1.31353 32.3283C3.29274 27.1722 9.07699 24.5969 14.233 26.5761L51.4526 40.8634C51.4937 40.8798 51.535 40.896 51.5765 40.9119L70.2481 48.0792C75.4041 50.0584 81.1883 47.4831 83.1675 42.3271C85.1468 37.1711 82.5714 31.3868 77.4154 29.4076L77.4132 29.4068C77.4139 29.4064 77.4145 29.406 77.4151 29.4056L58.7436 22.2383C53.5876 20.2591 51.0123 14.4749 52.9915 9.31885C54.9707 4.16283 60.755 1.58752 65.911 3.56673L120.828 24.6473C120.959 24.6977 121.089 24.7506 121.217 24.8059C121.453 24.8928 121.69 24.9815 121.926 25.0721C147.706 34.9681 160.583 63.8894 150.686 89.6695C140.79 115.45 111.869 128.326 86.089 118.43C85.5927 118.24 85.1011 118.042 84.6144 117.838C84.3783 117.766 84.1431 117.686 83.9091 117.596L30.0742 96.9308C24.9182 94.9516 22.3428 89.1673 24.3221 84.0113C26.3013 78.8553 32.0855 76.2799 37.2415 78.2592L55.9106 85.4256C55.9103 85.4242 55.9099 85.4229 55.9095 85.4215L55.9133 85.423C61.0694 87.4022 66.8536 84.8269 68.8328 79.6709C70.812 74.5148 68.2367 68.7306 63.0807 66.7514L54.6786 63.5261C54.6787 63.5257 54.6788 63.5252 54.6789 63.5247L7.06565 45.2477Z" fill="white"/>
</svg>
